{"title":"Paranormal Activity 3 2011 TS XViD-DTRG","uid":6768090,"size":810002004,"categoryP":"video","categoryS":"movies","magnet":"?xt=urn:btih:b0394574a78d1ee6e4e2476175abb8b380f26d02&amp;dn=Paranormal+Activity+3+2011+TS+XViD-DTRG&amp;tr=udp%3A%2F%2Ftracker.openbittorrent.com%3A80&amp;tr=udp%3A%2F%2Fopen.demonii.com%3A1337&amp;tr=udp%3A%2F%2Ftracker.coppersurfer.tk%3A6969&amp;tr=udp%3A%2F%2Fexodus.desync.com%3A6969","seeders":1,"leechers":0,"uploader":".BONE.","files":2,"time":1319471751,"description":"Format                           : AVI\nFormat/Info                      : Audio Video Interleave\nFile size                        : 764 MiB\nDuration                         : 1h 18mn\nOverall bit rate                 : 1 359 Kbps\nWriting library                  : VirtualDub build 32842/release\n \nVideo\nID                               : 0\nFormat                           : MPEG-4 Visual\nFormat profile                   : Advanced Simple@L5\nFormat settings, BVOP            : 2\nFormat settings, QPel            : No\nFormat settings, GMC             : No warppoints\nFormat settings, Matrix          : Default (H.263)\nMuxing mode                      : Packed bitstream\nCodec ID                         : XVID\nCodec ID/Hint                    : XviD\nDuration                         : 1h 18mn\nBit rate                         : 1 222 Kbps\nWidth                            : 624 pixels\nHeight                           : 332 pixels\nDisplay aspect ratio             : 1.880\nFrame rate                       : 25.000 fps\nColor space                      : YUV\nChroma subsampling               : 4:2:0\nBit depth                        : 8 bits\nScan type                        : Progressive\nCompression mode                 : Lossy\nBits/(Pixel*Frame)               : 0.236\nStream size                      : 687 MiB (90%)\nWriting library                  : XviD 64\n \nAudio\nID                               : 1\nFormat                           : MPEG Audio\nFormat version                   : Version 1\nFormat profile                   : Layer 3\nMode                             : Joint stereo\nCodec ID                         : 55\nCodec ID/Hint                    : MP3\nDuration                         : 1h 18mn\nBit rate mode                    : Constant\nBit rate                         : 128 Kbps\nChannel(s)                       : 2 channels\nSampling rate                    : 44.1 KHz\nCompression mode                 : Lossy\nStream size                      : 71.9 MiB (9%)\nAlignment                        : Split accross interleaves\nInterleave, duration             : 40 ms (1.00 video frame)\nInterleave, preload duration     : 500 ms\n  \n  &lt;a href=&quot;\nhttp://www.imdb.com/title/tt1778304/&quot; rel=&quot;nofollow&quot; target=&quot;_NEW&quot;&gt;\nhttp://www.imdb.com/title/tt1778304/&lt;/a&gt;\n \nYour rating:\n   1 2 3 4 5 6 7 8 9 10 -/10 X  \nRatings: 6.7/10 from 2,210 users   Metascore: 59/100\nReviews: 95 user | 36 critic | 25 from Metacritic.com\n \nIn 1988, young sisters Katie and Kristi befriend an invisible entity who resides in their home.\nDirectors:\nHenry Joost, Ariel Schulman\nWriters:\nChristopher B. Landon, Oren Peli (characters)\nStars:\nChloe Csengery, Jessica Tyler Brown and Christopher Nicholas Smith\n &lt;a href=&quot;\nhttp://www.piceye.net/pictures/3ac6bfc82f48f44518a64d08bffa2f55.jpg&quot; rel=&quot;nofollow&quot; target=&quot;_NEW&quot;&gt;\nhttp://www.piceye.net/pictures/3ac6bfc82f48f44518a64d08bffa2f55.jpg&lt;/a&gt;","torrent":{"xt":"urn:btih:b0394574a78d1ee6e4e2476175abb8b380f26d02","amp;dn":"Paranormal+Activity+3+2011+TS+XViD-DTRG","amp;tr":["udp%3A%2F%2Ftracker.openbittorrent.com%3A80","udp%3A%2F%2Fopen.demonii.com%3A1337","udp%3A%2F%2Ftracker.coppersurfer.tk%3A6969","udp%3A%2F%2Fexodus.desync.com%3A6969"],"infoHash":"b0394574a78d1ee6e4e2476175abb8b380f26d02","infoHashBuffer":{"type":"Buffer","data":[176,57,69,116,167,141,30,230,228,226,71,97,117,171,184,179,128,242,109,2]},"announce":[],"urlList":[]}}